<?xml version="1.0" standalone="no"?>
<!DOCTYPE svg PUBLIC "-//W3C//DTD SVG 20010904//EN"
 "http://www.w3.org/TR/2001/REC-SVG-20010904/DTD/svg10.dtd">
<svg version="1.0" xmlns="http://www.w3.org/2000/svg"
 width="500.000000pt" height="500.000000pt" viewBox="0 0 500.000000 500.000000"
 preserveAspectRatio="xMidYMid meet">
<metadata>
Created by potrace 1.14, written by Peter Selinger 2001-2017
</metadata>
<g transform="translate(0.000000,500.000000) scale(0.100000,-0.100000)"
fill="#000000" stroke="none">
<path d="M2328 4995 c-2 -1 -34 -6 -73 -9 -38 -3 -80 -8 -92 -10 -11 -3 -43
-8 -70 -12 -69 -10 -69 -10 -184 -37 -118 -29 -319 -94 -333 -108 -6 -5 -16
-9 -23 -9 -14 0 -206 -91 -288 -137 -68 -38 -214 -136 -294 -197 -239 -183
-490 -470 -638 -731 -29 -50 -143 -283 -143 -291 0 -3 -6 -20 -14 -37 -34 -79
-119 -357 -111 -365 2 -3 0 -12 -4 -21 -5 -9 -12 -38 -15 -66 -4 -27 -11 -68
-16 -90 -34 -154 -34 -554 0 -755 5 -30 12 -71 15 -90 3 -19 10 -51 15 -70 5
-19 11 -46 14 -60 11 -60 78 -264 120 -363 129 -309 303 -565 545 -807 186
-185 398 -341 609 -448 23 -12 59 -31 80 -41 80 -41 352 -141 422 -156 8 -2
33 -8 56 -14 43 -12 126 -28 184 -37 19 -3 62 -10 95 -15 76 -14 446 -19 545
-9 108 11 184 21 190 25 3 2 26 6 50 10 160 23 466 125 640 214 202 102 421
250 556 375 81 75 197 195 242 251 32 38 65 79 75 90 34 37 165 240 214 330
74 136 183 401 208 505 78 321 90 408 90 685 0 230 -5 285 -41 480 -49 269
-185 617 -330 845 -159 251 -394 507 -614 671 -161 120 -396 257 -525 307 -27
10 -59 23 -70 27 -11 5 -22 9 -25 10 -3 1 -12 5 -20 8 -31 14 -207 68 -250 78
-25 6 -54 13 -65 15 -57 13 -175 35 -210 39 -22 3 -56 8 -75 10 -38 6 -436 15
-442 10z"/>
</g>
</svg>
